<svg xmlns="http://www.w3.org/2000/svg" xmlns:xlink="http://www.w3.org/1999/xlink" version="1.1" x="0px" y="0px" viewBox="0 0 512 640" enable-background="new 0 0 512 512" xml:space="preserve"><g><path d="M222.753,208.021h-45.366v45.365h45.366V208.021z M210.753,241.386h-21.366v-21.365h21.366V241.386z"/><path d="M317.692,198.518c0,14.86,12.09,26.95,26.95,26.95s26.95-12.09,26.95-26.95s-12.09-26.95-26.95-26.95   S317.692,183.657,317.692,198.518z M344.643,183.567c8.243,0,14.95,6.707,14.95,14.95c0,8.243-6.707,14.95-14.95,14.95   s-14.95-6.707-14.95-14.95C329.692,190.274,336.399,183.567,344.643,183.567z"/><path d="M468.89,156.673l-9.785-0.008l-19.643-12.668c-1.153-0.742-2.313-1.494-3.479-2.25   c-9.206-5.972-18.699-12.12-28.992-15.841V85.035h-124.69v44.509h-0.177c-11.357,0-20.597,8.98-20.597,20.019   c0,3.88,1.16,7.493,3.134,10.564c-6.3,3.427-10.573,9.97-10.573,17.473c0,6.14,2.865,11.638,7.357,15.313   c-2.939,3.461-4.707,7.896-4.707,12.724c0,6.737,3.452,12.694,8.717,16.324c-2.459,3.298-3.928,7.337-3.928,11.712   c0,11.038,9.239,20.019,20.597,20.019h0.172v51.644h124.689V289.28c0.294-0.089,0.593-0.18,0.913-0.278   c9.296-2.892,20.561-7.775,28.03-12.151l21.843-12.796l5.914,0.006v0.023h21.74l9.844,0.01v-0.01h10.416V156.673H468.89z    M294.301,97.035h100.69v25.855c-2.064-0.273-4.104-0.417-6.137-0.417h-10.831c-2.935-3.132-6.163-8.403-6.163-10.373v-6h-54.439v6   c0,5.701-4.639,10.34-10.34,10.34h-6v7.331c-0.936-0.135-1.885-0.228-2.857-0.228h-3.923V97.035z M331.598,149.679   c1.025,2.738,2.58,5.168,4.636,7.237c0.263,0.263,0.538,0.525,0.813,0.772l0.39,0.334c2.038,1.729,4.351,2.977,6.798,3.687   c1.716,0.527,3.52,0.794,5.361,0.794h23.71c0.692,1.674,1.647,3.766,2.896,6.132v90.99c-7.506,2.096-13.43,8.023-15.523,15.532   h-32.074c-2.094-7.509-8.018-13.437-15.522-15.531v-12.586c3.196-3.548,5.161-8.228,5.161-13.369   c0-6.775-3.393-12.765-8.559-16.389c2.361-3.286,3.77-7.301,3.77-11.647c0-6.162-2.803-11.679-7.195-15.354   c2.838-3.456,4.545-7.873,4.545-12.683c0-3.841-1.106-7.421-2.99-10.472c6.209-3.403,10.43-9.999,10.43-17.564   c0-5.141-1.965-9.82-5.161-13.369v-2.571c7.505-2.094,13.427-8.017,15.521-15.521h32.524c0.566,1.475,1.296,2.948,2.113,4.373   h-13.645c-1.842,0-3.646,0.267-5.301,0.776c-8.211,2.427-13.955,10.337-13.969,19.244   C330.326,144.925,330.745,147.32,331.598,149.679z M282.124,141.544h16.1c4.422,0,8.019,3.597,8.019,8.019   c0,4.421-3.597,8.018-8.019,8.018h-7.439h-8.66c-4.74,0-8.597-3.597-8.597-8.018C273.527,145.141,277.384,141.544,282.124,141.544z    M266.088,177.599c0-4.421,3.856-8.019,8.597-8.019h7.439h8.66c4.422,0,8.019,3.598,8.019,8.019s-3.597,8.018-8.019,8.018h-13.449   h-2.65C269.944,185.617,266.088,182.021,266.088,177.599z M268.738,205.636c0-4.422,3.856-8.019,8.597-8.019h13.449h2.65   c4.422,0,8.019,3.597,8.019,8.019c0,4.421-3.597,8.018-8.019,8.018h-11.311h-4.789   C272.595,213.654,268.738,210.057,268.738,205.636z M282.124,241.69c-4.74,0-8.597-3.597-8.597-8.019   c0-4.421,3.856-8.018,8.597-8.018h11.311h4.789c4.422,0,8.019,3.597,8.019,8.018c0,4.422-3.597,8.019-8.019,8.019H282.124z    M394.985,293.334H294.296V253.69h3.928c0.973,0,1.922-0.094,2.857-0.228v17.346h6c5.701,0,10.34,4.643,10.34,10.35v6h54.439v-6   c0-5.707,4.639-10.35,10.341-10.35h6v-85.095c2.03,2.237,4.278,4.482,6.784,6.683V293.334z M493.686,252.083h-8.595l-9.405-0.01   v-53.56h-12v53.548l-9.166-0.009l-24.657,14.443c-5.972,3.499-15.035,7.512-22.877,10.18v-89.888l-2.18-1.8   c-0.543-0.449-1.078-0.897-1.57-1.318c-15.251-13.215-19.932-28.674-19.972-28.81l-1.246-4.346l-32.422-0.01   c-0.646,0-1.265-0.089-1.926-0.292c-0.928-0.27-1.784-0.742-2.546-1.405l-0.161-0.141c-0.082-0.076-0.16-0.152-0.23-0.221   c-0.834-0.841-1.473-1.842-1.873-2.909c-0.354-0.981-0.533-2.004-0.533-3.034c0.006-3.628,2.214-6.813,5.432-7.765   c0.573-0.176,1.191-0.265,1.838-0.265l32.552-0.011l6.698,0.011c3.662,0,7.409,0.601,11.458,1.838   c9.923,3.03,19.696,9.37,29.148,15.501c1.179,0.766,2.352,1.526,3.512,2.272l22.603,14.576l8.119,0.007v18.994h12v-18.984l18,0.016   V252.083z"/><path d="M303.213,331.036c-7.237-4.962-16.444-6.037-24.633-2.872l-0.258,0.1l-31.598,15.686V185.004h-143.88v12h131.88v152.902   l-11.627,5.772c-3.1,1.567-6.316,2.804-9.607,3.715c0.645-0.743,1.258-1.522,1.826-2.346c0.596-0.864,1.146-1.782,1.636-2.729   c0.344-0.626,0.617-1.221,0.858-1.767c3.463-7.987,2.765-17.156-1.868-24.526c-4.633-7.371-12.594-11.976-21.295-12.319   l-68.51-0.074l-4.766,0.042c-17.072,0.149-33.57,4.525-48.177,12.496V197.004h17.12v-12h-29.12v150.849   c-2.539,1.887-4.996,3.895-7.362,6.021v-4.337H6.314v83.454h47.518v-4.249l105.788,9.778c2.802,0.307,5.593,0.443,8.348,0.443   c22.928,0,43.194-9.517,44.069-9.935l85.91-39.313c3.41-1.347,6.448-3.339,9.031-5.924c5.026-5.024,7.794-11.708,7.794-18.818   C314.772,344.2,310.451,335.998,303.213,331.036z M298.493,363.31c-1.439,1.44-3.141,2.546-5.055,3.286l-86.473,39.56   c-0.231,0.109-23.398,10.932-46.083,8.433l-107.051-9.896v-12.75h-12v17.051H18.314v-59.454h23.518v29.474h12v-20.033   c17.014-19.686,41.57-31.076,67.645-31.305l4.707-0.042l68.096,0.069c4.771,0.222,8.959,2.662,11.503,6.711   c2.563,4.076,2.933,8.948,1.038,13.322c-0.124,0.277-0.267,0.594-0.399,0.83l-0.104,0.194c-0.264,0.516-0.56,1.012-0.88,1.476   c-2.803,4.064-7.406,6.388-12.366,6.205l-55.341-3.201l-0.693,11.979l7.021,0.406l46.536,6.969   c13.045,1.889,26.157-0.258,37.879-6.185l54.67-27.141c4.492-1.651,9.321-1.051,13.284,1.666c4.032,2.764,6.345,7.154,6.345,12.042   C302.772,356.88,301.253,360.55,298.493,363.31z"/><rect x="90.648" y="290.479" width="49.295" height="12"/><rect x="153.96" y="290.479" width="23.055" height="12"/><rect x="90.316" y="241.386" width="45.287" height="12"/><rect x="90.316" y="219.505" width="45.287" height="12"/></g><text x="0" y="527" fill="#000000" font-size="5px" font-weight="bold" font-family="'Helvetica Neue', Helvetica, Arial-Unicode, Arial, Sans-serif">Created by Chanut is Industries</text><text x="0" y="532" fill="#000000" font-size="5px" font-weight="bold" font-family="'Helvetica Neue', Helvetica, Arial-Unicode, Arial, Sans-serif">from the Noun Project</text></svg>