<svg xmlns="http://www.w3.org/2000/svg" width="69" height="72" viewBox="0 0 69 72">
  <g id="lost-items" transform="translate(-10.666)">
    <g id="Group_1144" data-name="Group 1144" transform="translate(10.666)">
      <g id="Group_1143" data-name="Group 1143">
        <path id="Path_1511" data-name="Path 1511" d="M69.27,113.109h-.03a1.488,1.488,0,0,0-1.485,1.5,1.508,1.508,0,1,0,1.515-1.5Z" transform="translate(-59.727 -97.203)" fill="#e4e4e4"/>
        <path id="Path_1512" data-name="Path 1512" d="M78.166,30H75.757L79.6,16.923a1.5,1.5,0,0,0-2.76-1.131C76.264,16.878,73.792,18,70.666,18c-3.435,0-6-1.584-6-3V6a6,6,0,1,0-12,0V7.5a1.5,1.5,0,0,0,3,0V6a3,3,0,0,1,6,0v9c0,1.416-2.565,3-6,3-3.126,0-5.6-1.122-6.18-2.208a1.5,1.5,0,0,0-2.76,1.131L50.572,30H45.556l-9.6-21.348A4.5,4.5,0,0,0,30,6.4L16.321,12.549A4.507,4.507,0,0,0,14.065,18.5L19.237,30H12.166a1.5,1.5,0,0,0-1.5,1.5v27A13.516,13.516,0,0,0,24.166,72h42a13.516,13.516,0,0,0,13.5-13.5v-27A1.5,1.5,0,0,0,78.166,30Zm-13.5-10.506a11.87,11.87,0,0,0,6,1.506,14.94,14.94,0,0,0,4.851-.8L72.634,30H64.666V19.494Zm-9,1.506a11.87,11.87,0,0,0,6-1.506V30H53.7l-2.883-9.8A14.9,14.9,0,0,0,55.666,21ZM16.8,17.271a1.5,1.5,0,0,1,.75-1.983L31.234,9.135a1.495,1.495,0,0,1,1.98.75L42.262,30H22.525ZM76.666,58.5A10.512,10.512,0,0,1,66.166,69h-42a10.512,10.512,0,0,1-10.5-10.5V33h63Z" transform="translate(-10.666)" fill="#e4e4e4"/>
        <path id="Path_1513" data-name="Path 1513" d="M204.061,285.6a1.477,1.477,0,0,0,1.6-1.4,4.535,4.535,0,0,1,9,.255c0,2.685-2.292,3.576-4.536,4.092l-.333.081a1.493,1.493,0,0,0-1.125,1.449l0,3.75a1.5,1.5,0,0,0,3,0l0-2.583c3.981-1.14,6-3.423,6-6.8a7.53,7.53,0,0,0-15-.456A1.5,1.5,0,0,0,204.061,285.6Z" transform="translate(-175.663 -238.334)" fill="#e4e4e4"/>
        <path id="Path_1514" data-name="Path 1514" d="M245.783,427.254a1.5,1.5,0,1,0,2.1,0A1.5,1.5,0,0,0,245.783,427.254Z" transform="translate(-212.333 -366.804)" fill="#e4e4e4"/>
      </g>
    </g>
  </g>
</svg>
