<svg xmlns="http://www.w3.org/2000/svg" width="37" height="37" viewBox="0 0 37 37">
  <g id="store" transform="translate(0)">
    <path id="Path_1507" data-name="Path 1507" d="M152.084,331A1.084,1.084,0,0,0,151,332.084v2.168a1.084,1.084,0,0,0,2.168,0v-2.168A1.084,1.084,0,0,0,152.084,331Z" transform="translate(-140.088 -307.08)" fill="#e4e4e4"/>
    <path id="Path_1508" data-name="Path 1508" d="M274.734,301.111a1.084,1.084,0,0,0-1.454.485l-2.168,4.336a1.084,1.084,0,1,0,1.939.97l2.168-4.336A1.084,1.084,0,0,0,274.734,301.111Z" transform="translate(-251.413 -279.245)" fill="#e4e4e4"/>
    <path id="Path_1509" data-name="Path 1509" d="M364.734,301.111a1.084,1.084,0,0,0-1.454.485l-2.168,4.336a1.084,1.084,0,1,0,1.939.97l2.168-4.336A1.084,1.084,0,0,0,364.734,301.111Z" transform="translate(-334.909 -279.245)" fill="#e4e4e4"/>
    <path id="Path_1510" data-name="Path 1510" d="M36.814,13.556h0L32.592,7.327V1.084A1.084,1.084,0,0,0,31.508,0H5.492A1.084,1.084,0,0,0,4.408,1.084V7.327L.187,13.556h0A1.089,1.089,0,0,0,0,14.164H0A5.415,5.415,0,0,0,2.168,18.5V34.832H1.084a1.084,1.084,0,0,0,0,2.168H35.916a1.084,1.084,0,0,0,0-2.168H34.76V18.52A5.384,5.384,0,0,0,37,14.164h0A1.091,1.091,0,0,0,36.814,13.556Zm-5.306,3.86a3.257,3.257,0,0,1-3.066-2.169h6.193A3.375,3.375,0,0,1,31.508,17.416ZM27.953,13.08,26.508,8.744h4.425l2.939,4.336Zm4.639,21.752H17.416V32.664H32.592ZM14.164,17.416A3.257,3.257,0,0,1,11.1,15.247H17.23A3.257,3.257,0,0,1,14.164,17.416ZM2.354,15.247H8.547A3.373,3.373,0,0,1,5.42,17.416,3.257,3.257,0,0,1,2.354,15.247Zm.774-2.167L6.067,8.744h4.425L9.047,13.08ZM17.416,8.744V13.08H11.332l1.445-4.336Zm6.807,0,1.445,4.336H19.584V8.744Zm1.679,6.5a3.251,3.251,0,0,1-6.131,0Zm4.522-13.08V6.576H6.576V2.168ZM4.336,19.475a5.424,5.424,0,0,0,1.084.109,5.5,5.5,0,0,0,3.86-1.579,5.585,5.585,0,0,0,.538-.607,5.419,5.419,0,0,0,5.431,2.077V34.832H4.336ZM32.592,30.5H17.416v-12A5.467,5.467,0,0,0,18.5,17.412a5.414,5.414,0,0,0,8.672,0,5.414,5.414,0,0,0,4.335,2.172,5.529,5.529,0,0,0,1.084-.107Z" transform="translate(0)" fill="#e4e4e4"/>
  </g>
</svg>
