<svg xmlns="http://www.w3.org/2000/svg" width="22.504" height="15.738" viewBox="0 0 22.504 15.738">
  <g id="_035-return" data-name="035-return" transform="translate(0 -76.969)">
    <g id="Group_957" data-name="Group 957" transform="translate(0 76.97)">
      <path id="Path_1370" data-name="Path 1370" d="M16.915,81.529H1.587L4.81,77.916a.568.568,0,0,0-.848-.757L.332,81.228a1.305,1.305,0,0,0,0,1.739l3.63,4.068a.568.568,0,0,0,.848-.757L1.587,82.666H16.915a4.452,4.452,0,0,1,0,8.9H14.208a.568.568,0,1,0,0,1.137h2.707a5.589,5.589,0,1,0,0-11.179Z" transform="translate(0 -76.97)" fill="#58ccc1"/>
    </g>
  </g>
</svg>
