<svg xmlns="http://www.w3.org/2000/svg" width="23.549" height="32.144" viewBox="0 0 23.549 32.144">
  <g id="direct_active" transform="translate(-1950.132 -2501.829)">
    <path id="Path_1437" data-name="Path 1437" d="M3199.87,3747.077v9.537c0,1.524,2.622.055,3.762-.434l16.33-6.939a6.557,6.557,0,0,0,1.894-.967,3.524,3.524,0,0,0,1.266-1.786l.017-11.617a16.7,16.7,0,0,1-5.406,3.368l-15.575,6.549C3201.154,3745.178,3199.87,3745.71,3199.87,3747.077Z" transform="translate(-1249.458 -1223.314)" fill="#ffeab3" fill-rule="evenodd"/>
    <path id="Path_1438" data-name="Path 1438" d="M3164.468,2502.974c0,9.909-.955,9.967,3.379,11.688,6.992,2.778,3.046,2.681,11.334-.6,1.38-.546,5.886-2.025,5.886-3.269,0-1-.732-1.026-2.005-1.618l-12.408-5.33c-2.9-1.21-6.185-3.35-6.185-.872Z" transform="translate(-1214.246)" fill="#ffeab3" fill-rule="evenodd"/>
  </g>
</svg>
