<svg id="shopping-cart_active" xmlns="http://www.w3.org/2000/svg" width="32.451" height="32.451" viewBox="0 0 32.451 32.451">
  <path id="Path_1314" data-name="Path 1314" d="M31.5,25.458c-26.346,0-25.171,0-25.173-.009a17.816,17.816,0,0,1-.258-2.167c12.642-.066-17.587,0,23.328,0a2.932,2.932,0,0,0,2.99-3V7.4a2.272,2.272,0,0,0-2.264-2.268l-7.87-.014V3.106a2.03,2.03,0,0,0-2.028-2.028h-1.9A2.03,2.03,0,0,0,16.3,3.1v2L7.854,5.093,7.221,1.607A1.956,1.956,0,0,0,5.3,0H.951a.951.951,0,0,0,0,1.9c4.6,0,4.387-.025,4.4.046,1.032,5.681.375,1.71,3.142,19.421L6.06,21.38a1.912,1.912,0,0,0-1.889,2.149l.269,2.156a1.914,1.914,0,0,0,1.9,1.674H8.024a3.5,3.5,0,1,0,6.22,0H23.3a3.5,3.5,0,1,0,6.22,0H31.5a.951.951,0,0,0,0-1.9ZM18.2,3.1a.126.126,0,0,1,.126-.126h1.9a.127.127,0,0,1,.127.127v7.035a.951.951,0,0,0,.951.951h1.412l-2.963,2.965a.672.672,0,0,1-.952,0l-2.963-2.965h1.412a.951.951,0,0,0,.951-.951V3.1Zm-1.9,3.9V9.19H14.71A1.436,1.436,0,0,0,13.7,11.639L17.454,15.4a2.573,2.573,0,0,0,3.641,0l3.759-3.761A1.436,1.436,0,0,0,23.84,9.19H22.253V7.019l7.867.014a.367.367,0,0,1,.366.367V20.282a1.038,1.038,0,0,1-1.089,1.1H10.42L8.172,6.995ZM12.729,28.954a1.6,1.6,0,1,1-1.6-1.6,1.6,1.6,0,0,1,1.6,1.6Zm15.275,0a1.6,1.6,0,1,1-1.6-1.6A1.6,1.6,0,0,1,28,28.954Z" transform="translate(0 0)" fill="#ffeab3"/>
  <path id="Path_1462" data-name="Path 1462" d="M7.765,6.137h9.283V9.92l-3.013.175,4.9,5.535,1.3-.455L24.4,10.726,21.5,10.1V5.927l9.108.21.806,1.331L31.2,21.48H9.727Z" fill="#ffeab3"/>
</svg>
