<svg id="shopping-bag_active" xmlns="http://www.w3.org/2000/svg" width="25.739" height="32.462" viewBox="0 0 25.739 32.462">
  <g id="Group_890" data-name="Group 890" transform="translate(5)">
    <g id="Group_889" data-name="Group 889">
      <path id="Path_1236" data-name="Path 1236" d="M78.744,26.77,77.294,8.5a2.283,2.283,0,0,0-2.266-2.1H72.165V6.275a6.275,6.275,0,1,0-12.55,0V6.4H56.751a2.282,2.282,0,0,0-2.266,2.1l-1.45,18.272a5.286,5.286,0,0,0,5.27,5.69H73.474a5.286,5.286,0,0,0,5.27-5.692ZM61.516,6.275a4.373,4.373,0,1,1,8.747,0V6.4H61.516Zm14.44,23.2a3.349,3.349,0,0,1-2.483,1.085H58.306a3.384,3.384,0,0,1-3.375-3.641l1.45-18.272a.373.373,0,0,1,.37-.343h2.863v2.342a.951.951,0,1,0,1.9,0V8.305h8.747v2.342a.951.951,0,1,0,1.9,0V8.305h2.863a.373.373,0,0,1,.37.345l1.45,18.267A3.35,3.35,0,0,1,75.957,29.476Z" transform="translate(-58.02)" fill="#ffeab3"/>
      <path id="Path_1494" data-name="Path 1494" d="M-.7,31.377H17.134l2.4-2.529.436-1.875L18.224,7.743,15.7,7.22l-18.053.7-.872,5.494-.523,9.855-.262,5.974Z" fill="#ffeab3"/>
    </g>
  </g>
  <g id="Group_892" data-name="Group 892" transform="translate(8.297 15.835)">
    <g id="Group_891" data-name="Group 891">
      <path id="Path_1237" data-name="Path 1237" d="M193.752,250.2a1.043,1.043,0,0,0-1.474,0l-4.656,4.656-1.79-1.79a1.043,1.043,0,1,0-1.475,1.475l2.528,2.528a1.042,1.042,0,0,0,1.474,0l5.393-5.393A1.043,1.043,0,0,0,193.752,250.2Z" transform="translate(-184.052 -249.893)" fill="#333450"/>
    </g>
  </g>
</svg>
