<svg xmlns="http://www.w3.org/2000/svg" width="27.632" height="32.656" viewBox="0 0 27.632 32.656">
  <g id="profile_tab" transform="translate(-39.385)">
    <g id="Group_1022" data-name="Group 1022" transform="translate(39.385)">
      <path id="Path_1430" data-name="Path 1430" d="M58.124,15.142a8.373,8.373,0,1,0-9.846,0A13.838,13.838,0,0,0,39.385,28.05a4.61,4.61,0,0,0,4.605,4.605H62.411a4.61,4.61,0,0,0,4.605-4.605A13.838,13.838,0,0,0,58.124,15.142ZM47.34,8.373A5.861,5.861,0,1,1,53.2,14.235,5.868,5.868,0,0,1,47.34,8.373Zm15.072,21.77H43.99A2.1,2.1,0,0,1,41.9,28.05a11.3,11.3,0,1,1,22.608,0A2.1,2.1,0,0,1,62.411,30.144Z" transform="translate(-39.385)" fill="#58ccc1"/>
    </g>
  </g>
</svg>
