<svg id="shopping-bag_tab" xmlns="http://www.w3.org/2000/svg" width="25.739" height="32.462" viewBox="0 0 25.739 32.462">
  <g id="Group_890" data-name="Group 890" transform="translate(0)">
    <g id="Group_889" data-name="Group 889">
      <path id="Path_1236" data-name="Path 1236" d="M78.744,26.77,77.294,8.5a2.283,2.283,0,0,0-2.266-2.1H72.165V6.275a6.275,6.275,0,1,0-12.55,0V6.4H56.751a2.282,2.282,0,0,0-2.266,2.1l-1.45,18.272a5.286,5.286,0,0,0,5.27,5.69H73.474a5.286,5.286,0,0,0,5.27-5.692ZM61.516,6.275a4.373,4.373,0,1,1,8.747,0V6.4H61.516Zm14.44,23.2a3.349,3.349,0,0,1-2.483,1.085H58.306a3.384,3.384,0,0,1-3.375-3.641l1.45-18.272a.373.373,0,0,1,.37-.343h2.863v2.342a.951.951,0,1,0,1.9,0V8.305h8.747v2.342a.951.951,0,1,0,1.9,0V8.305h2.863a.373.373,0,0,1,.37.345l1.45,18.267A3.35,3.35,0,0,1,75.957,29.476Z" transform="translate(-53.02)" fill="#58ccc1"/>
    </g>
  </g>
  <g id="Group_892" data-name="Group 892" transform="translate(8.298 15.835)">
    <g id="Group_891" data-name="Group 891">
      <path id="Path_1237" data-name="Path 1237" d="M192.917,250.172a.953.953,0,0,0-1.347,0l-4.255,4.255-1.636-1.636a.953.953,0,0,0-1.348,1.348l2.31,2.31a.953.953,0,0,0,1.347,0l4.928-4.928A.953.953,0,0,0,192.917,250.172Z" transform="translate(-184.052 -249.893)" fill="#58ccc1"/>
    </g>
  </g>
</svg>
